<svg version="1" xmlns="http://www.w3.org/2000/svg" width="768" height="768" viewBox="0 0 576.000000 576.000000"><path d="M358 4.2c-4.2 5-10 13.8-10 15.2 0 .5-1.1 2.4-2.5 4.2-1.4 1.8-2.5 3.5-2.5 3.8 0 .3-2.6 6.1-5.8 12.8-3.2 6.8-7.1 15-8.6 18.3-1.5 3.3-4 8.7-5.6 12-1.6 3.3-4.2 9.3-5.9 13.3-1.7 4.1-3.9 8.6-4.9 10-1 1.5-4.2 7.6-7 13.7-2.9 6-5.7 11.7-6.2 12.5-.6.8-1.8 3.1-2.8 5-.9 1.9-3.2 5.7-5 8.3-1.8 2.6-4.4 7.2-5.7 10.1-1.3 3-2.8 5.7-3.3 6-.6.3-1.3 2.1-1.6 4.1-1.2 6-13.8 32.7-17.6 37-1 1.1-3 4.2-4.5 7-1.5 2.7-3.9 6.7-5.4 9-1.5 2.2-3.5 6.2-4.5 9-2 5.2-5.1 10-9.1 13.8-1.3 1.2-3.5 5-4.7 8.3-1.7 4.6-4.2 8.1-9.6 13.9-6.6 7.1-7.2 8.1-7.2 12 0 2.7-.7 5.1-1.9 6.6-1.7 2.2-2.2 2.3-5.3 1.2-1.8-.6-6.8-2.1-11-3.4l-7.7-2.2-2.3-5.6c-3.5-8.7-15.2-31.6-17.7-34.8-1.2-1.5-5.5-7.3-9.6-12.8-4.1-5.6-11.1-14-15.7-18.8-7.9-8.3-8.5-8.7-12.5-8.7-5 0-6.4 1.6-9.5 11.2-1.8 5.7-2 9.5-2.4 39.8-.4 28.7-.1 35.5 1.4 47.5l1.9 14-3.2 3.5c-5.2 5.7-10.5 12.6-10.5 13.7 0 .6-.7 1.6-1.5 2.3-1.5 1.3-7.5 13.3-7.5 15.1 0 .5-.9 2.8-1.9 5.2-4.2 9.5-5.1 12.9-5.1 20.3v7.6l-9.8-.8c-5.3-.5-11.9-.7-14.7-.6-2.7.2-13.1.7-23 1.2-15.8.7-38.5 3-45.3 4.5-1.7.4-2.2 1.2-2.2 3.7v3.1l6.8-.7c3.7-.4 7.8-.9 9.2-1.1 11.2-1.6 41.7-3.1 58.5-2.8 22.8.4 24.1.5 24.8 3.3.6 2.3 1.7 2.1-17.3 2.6-12.4.3-55.8 3.7-75.7 6l-6.3.7v7l7.8-.8c4.2-.5 9.3-.8 11.2-.8 1.9 0 6.7-.4 10.5-.9 3.9-.6 9.5-1.2 12.5-1.3 3-.2 9.6-.8 14.5-1.4 8.7-1.1 41.3-1.6 40.4-.6-.3.2-10.6 1.4-22.9 2.5-24 2.2-38.4 4-49.5 6.4-3.8.8-9.9 1.7-13.5 2.1-3.6.4-7.5 1.1-8.7 1.6-2.5.9-3.1 4.6-.9 5.5 1.3.5 16.9-1.5 27.4-3.5 2.9-.5 8.3-1.2 12-1.5 3.7-.2 8.5-.7 10.7-1.1 2.2-.3 6.5-.7 9.5-.9 3-.2 10.5-.9 16.5-1.5 17.3-1.6 29.5-2.1 29.5-1 0 .5-.6.9-1.2 1-.7 0-3.5.4-6.3.9-2.7.6-10.2 1.4-16.6 1.9-6.3.5-16 1.8-21.5 3-5.4 1.1-15.2 2.7-21.6 3.5-12 1.6-18.4 3.5-19.3 5.8-.4.9-2.1 1.3-5.5 1.2-5.1-.3-7.7 1.3-6.7 4.1.8 2 9.4 1.8 11-.4.7-.9 2.8-1.7 4.7-1.8 11.4-.6 28.7-2.7 36.5-4.4 5-1.1 14.4-2.4 21-2.9 6.6-.6 13.9-1.4 16.2-2 2.3-.5 6.2-1 8.7-1 4.3 0 4.7.2 6.2 3.8 1.5 3.6 1.4 3.9-1 9-1.4 2.9-3 6.9-3.5 9-2.4 9.6-5.3 21.3-6.9 27.2-1.4 5.4-1.7 10.9-1.6 32 0 26.7 1 35 5.4 46 1 2.5 2.8 7.6 4 11.5 1.2 3.8 4.8 12.5 8.1 19.3 3.2 6.7 5.9 12.9 5.9 13.7 0 1.1 1.1 1.5 4.1 1.5 5 0 5 .3-3.5-17-3.4-6.9-6.8-14.5-7.5-17-.7-2.5-1.7-5.3-2.3-6.4-1.9-3.5-5.6-16.2-6.8-23.1-.6-3.9-1.4-16-1.6-27-.3-21.1.2-25.8 5.7-47 1.1-4.4 2.2-8.7 2.4-9.5.2-.8 1.5-4.4 2.8-8l2.5-6.5 1.8 3.3c7.1 12.8 11.3 18.8 17.2 24.8 8.2 8.3 10.7 10.4 12.9 10.4.9 0 3.5 1.5 5.7 3.4 7.2 5.8 16.9 6.7 33.6 3 3.5-.8 8.7-1.7 11.5-2 2.7-.3 7.7-1.1 11-1.9 3.3-.8 9.3-1.7 13.3-2.1l7.3-.7-2.6 4.9c-1.4 2.6-2.9 5.1-3.3 5.4-.4.3-2.3 3.6-4.1 7.5-1.9 3.8-4.4 9.2-5.7 11.8-1.3 2.7-2.4 5.4-2.4 6 0 .7-.7 2.5-1.6 4.2-4.7 8.8-13.5 41.5-15.4 57.5-.5 4.7-1.4 10.7-1.9 13.5-.6 2.7-1 6.7-1 8.7l-.1 3.8h5.5c3.7 0 5.5-.4 5.5-1.3.1-1.8 1.9-14.9 2.4-17.2.2-1.1 1.2-4.9 2.1-8.5 2.6-10.1 5.6-22.2 6.1-25 .3-1.4.9-3.4 1.4-4.5.4-1.1 1.6-4.3 2.5-7 1.8-5.1 3.1-8.3 5.9-14.7.9-2 1.6-3.9 1.6-4.3 0-.3 1.1-3.1 2.5-6.1 1.4-3 2.5-5.6 2.5-5.9 0-.4 6.3-14.5 8.2-18.2 1.8-3.6 4.9-3.6 8.3 0 6.1 6.6 30.2 39.1 32.9 44.4 1.6 3.1 5.6 4.7 5.6 2.2 0-.5-2.5-4.6-5.5-8.9-3-4.3-5.5-8.3-5.5-8.9 0-.5-.3-1.1-.7-1.3-.5-.2-2.8-3.2-5.3-6.8-2.4-3.6-5-7.1-5.7-7.8-.7-.8-2.6-3-4.1-5-1.5-2-3.9-4.9-5.4-6.3-1.4-1.5-3.4-4.1-4.2-5.8l-1.7-3.1h14.9l4 4.3c6.3 6.5 12.2 13.7 15.8 19.2 1.8 2.7 4.7 6.6 6.5 8.5 1.7 1.9 3.8 4.5 4.6 5.7 1.7 2.6 5.3 3.1 5.3.8 0-.9-1.6-3.1-3.5-5-3.2-3.2-8.4-9.9-16-20.6-1.6-2.3-4.7-6.2-6.8-8.7-2.1-2.4-3.6-4.9-3.4-5.5.2-.7 1.9-1.3 3.8-1.4 3-.3 4.2.5 10.4 6.5 3.9 3.7 9.8 10.2 13.3 14.4 3.5 4.2 6.9 7.9 7.7 8.1 1.5.6 2.5-.1 2.5-1.7 0-1.7-10.3-14.3-18.2-22.3-4-4-6.9-7.5-6.5-7.9.8-.8 8.4-.7 9.8.1.6.4.8 1.8.5 3.1-.7 2.6.2 3.7 7.4 8.9 2.2 1.6 7.4 5.8 11.5 9.2 9.8 8.1 18.2 10.9 25.1 8.3 2.3-.9 3.4-.6 7.8 2.2 2.8 1.8 5.7 3.8 6.4 4.5.7.7 4.6 3.2 8.5 5.5 4 2.3 8.6 5.2 10.3 6.5 1.8 1.3 6 3.5 9.5 4.9 9 3.4 14.2 2.5 27.4-4.9 3.6-2 4.1-2.7 4.6-7.2.4-2.8 1.2-6.6 1.8-8.5 1.1-3.8 3.9-14.2 4.8-17.7.7-3.2-2.8-4.7-9.4-4-4.9.5-5.9 1.1-9.7 5.1-2.3 2.5-4.8 4.6-5.4 4.6-.6 0-2-1.7-3.1-3.7-2-3.9-9.2-12.3-10.5-12.3-2 0-9.6-6.6-10.7-9.3-1.7-4-6.5-9.4-10-11.3-3.4-1.7-10.5-1.9-11.6-.2-.4.7-.6 4.2-.5 7.7.1 3.6-.3 7-.9 7.8-4.1 4.9-8.8-3.3-9.9-17-.8-10.3-3.8-18.3-7.4-19.7-1.2-.4-3.5-2.4-5.2-4.4-1.7-2-3.5-3.6-4-3.6-1.2 0-5.4-4.5-5.4-5.9 0-.5-1.2-2.2-2.7-3.6-3.7-3.4-9.2-3.2-11 .5-1.7 3.3-1.6 12.4.1 16.3 1.7 4.2 3.8 12.8 3.2 13.5-.3.3-1-.7-1.5-2.1-1.2-3-2-3.6-6.1-4.1-4.1-.5-4.4-.9-3.1-4.7 1.6-4.5 1.4-7.8-.9-14.9-3.2-10-3-10.7 5.8-19.1 4.2-4.1 9.3-8.6 11.2-9.9 1.9-1.3 3.7-2.7 4-3 .8-.8 7.9-5.5 15.5-10l7-4.2 5.7 6.1c3.2 3.3 5.8 6.5 5.8 7 0 .4 3 3.7 6.8 7.2 3.7 3.5 8.4 8.7 10.5 11.6 7.2 9.9 18.6 16.7 27.7 16.5 7.9-.1 21-2.1 24.8-3.8 1.8-.8 3.7-1.4 4.2-1.4 3.1 0 8.3-5 10.9-10.5 4.3-8.9 6.1-13.5 6.1-15.9 0-1.1 1.4-4.8 3-8.1 4.8-9.7 4.1-16.6-2.7-25.2-1.8-2.3-3.3-4.5-3.3-5 0-.4 2.2-1.6 4.8-2.6 5.1-1.7 6.3-3.5 9.2-12.8 2.1-7.1 7.1-10.3 8.9-5.6 1.6 4.1 3.7 5.1 7.2 3.6 3.7-1.5 6.6-4 9.8-8.7 1.2-1.7 2.9-3.2 3.7-3.2.8 0 1.7-.7 2-1.5.3-.8 1.6-1.7 2.7-2.1 1.2-.3 5.9-2.4 10.4-4.5s8.9-3.6 9.6-3.3c.8.3 1.7-.2 2.1-1.1.4-1.1 1.3-1.4 2.5-1 1.2.3 2.1 0 2.5-1 1-2.8-1.2-6.4-5.4-8.5-2.2-1.1-4-2.4-4-2.9s2.4-.7 5.3-.4c2.8.3 9.3 0 14.2-.5 8.6-1 38 .5 48.1 2.4l3.4.6v-8.1c0-9.5 2.2-8.2-19-10.7-14.5-1.6-34.9-2-47-.9-17.7 1.7-51.3 8.5-57.4 11.7-1 .5-5.3 2.1-9.4 3.4-4.2 1.4-10.7 3.9-14.3 5.5-3.7 1.6-7.2 2.9-7.8 2.9-.7 0-6 2.3-11.8 5.1-11.9 5.7-13.6 5.7-14.1-.4-.2-2.9-1.1-4.3-3.9-6.4-3.4-2.6-3.9-2.7-15.7-2.6-6.6.1-14.3.7-17.1 1.3-2.7.6-8.8 1.7-13.5 2.6-4.7.9-11.4 2.7-15 4-3.6 1.4-8.3 3.2-10.5 4.1-2.2.8-4.7 1.9-5.5 2.4-.8.5-3.2 1.8-5.2 2.9-2 1.1-3.9 2.4-4.3 2.9-.3.5-2.9 2.1-5.9 3.6l-5.3 2.6-14.1-8c-7.7-4.4-15.2-8.3-16.6-8.7-3-.7-3.1-1.4-1.1-5.3.8-1.6 1.7-5.9 2.1-9.7.5-5.2 1.6-8.6 4.5-13.9 2-3.9 5-10.6 6.5-15s3.1-8.5 3.5-9c.4-.6 1.2-3 1.9-5.5 1.8-7.1 9.1-26.3 10.6-28.1.8-.8 2.2-4 3.3-7 1-3 3.2-8.3 4.9-11.9 5.5-12.1 8.2-18.7 8.2-20.2 0-.8.4-1.8.8-2.3.5-.6 1.9-3.7 3.2-7 1.3-3.3 2.8-6.7 3.4-7.5 1.8-2.3 4.3-8.2 5.1-12 .4-1.9 2.4-7.6 4.5-12.6 2.1-5.1 5.6-15.2 7.9-22.6 2.3-7.3 4.6-14.2 5.2-15.3.5-1.1 2.2-6.1 3.8-11 1.6-5 3.8-11 4.9-13.5 1.1-2.5 4.8-11.7 8.2-20.5 3.4-8.8 8.2-19.9 10.6-24.8C366 8.9 368 3.8 368 2.5c0-2.2-.5-2.5-3.2-2.5-2.6 0-4 .9-6.8 4.2zm-26.9 70.1c-1 .9-1.1.8-.5-.6.3-1 .9-1.5 1.2-1.2.3.3 0 1.1-.7 1.8zm-3.8 9.8c-1.4 4-2.9 8.7-3.4 10.4-.4 1.6-2.4 7.5-4.4 13-2 5.5-5.5 14.9-7.6 21-2.1 6-5.3 13.9-7.1 17.5-1.7 3.6-4.2 8.7-5.5 11.3-1.2 2.7-2.3 5.5-2.3 6.3 0 .8-1.1 3.7-2.5 6.6-1.4 2.8-2.5 5.5-2.5 6 0 .4-1.5 4-3.4 8-1.8 4-3.7 8.4-4.1 9.8-.4 1.4-2.5 5.9-4.5 10-3.7 7.4-5.9 13.2-8.5 22-3.1 10.4-11.4 29.5-14.7 33.9-1.1 1.5-1.8 4.1-1.8 7.1 0 5.7-2.3 12.6-5.2 15.7-1.4 1.5-2.2 4.1-2.7 8.8-.4 3.6-1.4 7.1-2.2 7.9-2.1 1.9-9.5 4.6-12.8 4.6-4.9 0-10.6-5.1-13.1-11.6l-2.1-5.8 4.5-9c2.5-5 4.6-10.5 4.6-12.1 0-2.5 1.4-4.5 7.4-10.4 6.3-6.3 7.5-8 8.5-12.5.9-3.9 2.4-6.7 5.9-10.7 2.8-3.1 6.2-8.7 8.1-13.2 1.9-4.3 3.7-8 4.1-8.2.7-.4 2.7-3.9 6.7-11.6.7-1.5 2.1-3.3 2.9-4 1.7-1.4 16.7-31.5 17.9-35.9 1.1-4.1 9.6-21 14.1-28 3.5-5.6 14.4-26.9 14.4-28.3 0-.2 1.6-3.1 3.5-6.3 1.9-3.2 3.5-6.6 3.5-7.6s1-3.5 2.3-5.6c1.3-2 2.7-4.6 3-5.6.4-1 .9-1.7 1.2-1.4.2.2-.7 3.8-2.2 7.9zM143.7 198.2c4.7 4.6 9.9 10.4 11.6 12.9 1.8 2.5 5.5 7.9 8.2 12 2.8 4.1 5.3 7.6 5.6 7.9.3.3 2.5 4.3 4.8 9 2.4 4.7 4.6 8.9 5 9.5.4.5 1.8 3.8 3.1 7.3 1.2 3.4 2.7 6.5 3.1 6.8.5.3.9 1.3.9 2.3 0 3.9 3.7 5.8 22.8 11.2 2.3.7 4.2 1.4 4.2 1.6 0 .2-.6 1.9-1.4 3.8-1.7 3.9-1.2 6.4 2.7 14 4.4 8.7 11.4 14.5 17.4 14.5 4 0 13.4-3.1 16.7-5.6 1.9-1.4 3.2-3.6 4.1-7 1.2-4.7 1.4-4.9 4.4-4.6 1.8.1 9 3.4 16.1 7.2 7 3.9 13.2 7 13.8 7 .5 0 1.5.7 2.2 1.5 1.8 2.2 5.6 1.8 9.8-1 2-1.4 4-2.5 4.5-2.5s2.8-1.4 5.1-3c3.8-2.7 7.6-4.4 26.1-11.1 2.8-1 6.1-1.8 7.5-1.8 2.3 0 2.4.1.6 1.2-4 2.5-16.2 12.1-18.6 14.6-1.4 1.4-4.8 5.8-7.4 9.6-2.7 3.9-5.9 8.1-7.1 9.5-2 2.3-4.2 5.8-13 21-1.7 3-4.2 8.2-5.4 11.5-1.3 3.3-2.7 6.9-3.1 8-.5 1.1-1.2 3.6-1.6 5.5-.4 2.1-2.4 5.3-5.2 8.2-2.4 2.6-5.2 5.8-6 7-.9 1.3-1.8 2.5-2.1 2.8-1.3 1.1-12 15.8-14.5 19.7-2.8 4.7-3.7 5.1-5.6 2.8-.7-.8-3.3-2.5-5.9-3.7-2.5-1.3-4.7-2.6-4.9-3.1-.2-.4-.8-.7-1.4-.7-.6 0-2.5-1-4.2-2.3-6.6-5-14.1-8.6-15.6-7.6-2 1.3 1.7 4.4 13.5 11.1 16.4 9.4 20.5 13.4 15.8 15.2-1.8.7-3.4-.3-14.3-8.3-8.7-6.4-14-9.3-15.7-8.6-2.3.8-1.4 2.4 3 5.2 2.3 1.6 4.4 3.1 4.5 3.5.2.5.9.8 1.5.8.7 0 2.8 1.4 4.7 3.1 1.9 1.7 5.6 4.4 8.2 6.1 5.1 3.4 5.3 3.5 3.9 5.7-.8 1.2-1.6 1-4.8-1.1-2.1-1.4-6.3-4.8-9.3-7.5-6.1-5.5-11.2-8.4-12.9-7.3-1.7 1-.4 3.5 2.5 5 1.3.7 2.4 1.7 2.4 2.2 0 .4.4.8 1 .8 1.1 0 3.3 1.8 8.3 6.5 1.8 1.7 4.5 4 6 5.2 2.7 2.1 2.8 2.3 1.6 6.2-.7 2.3-1.7 4.1-2.4 4.1-1.1 0-15.2-14.7-16.8-17.6-1.1-1.9-4.6-1.8-5.4.1-.3 1.1 1.4 3.5 5.3 7.3 10.2 9.9 15.1 16.2 12.6 16.2-3.2 0-18.2 2.2-20.2 3-1.4.6-6.6 1.4-11.7 1.9-5 .5-13.2 2-18.2 3.2-10.4 2.5-14.2 2-23.4-3.5-2.9-1.7-6.5-3.8-8.1-4.6-2.6-1.4-13.7-11.9-17.8-16.8-1-1.2-3.1-4.7-4.8-7.9-1.6-3.2-4-7.6-5.3-9.8-2.5-4.3-5.9-12.7-5.4-13.2.2-.1 3.2-.9 6.8-1.6 4.1-.8 6.4-1.8 6.4-2.6 0-1.8-1.7-2-8.5-1.1-6.4.8-8 .5-8-2 0-1.9.5-2 15.4-3.2 1.6-.2 3.1-.9 3.4-1.5.3-1-2.2-1.3-10.3-1.2-10.6.1-12.4-.4-12.5-3.5 0-.5 5.7-.5 13-.1 9 .5 13 .4 13-.4 0-1.4-2.2-1.8-15.9-3-12-1-13.5-1.6-14.6-6.4-.7-2.6-.6-2.7 3.1-2.7 2.2 0 8 .7 12.9 1.5 5 .8 10.9 1.5 13.3 1.5 3.6 0 4.3-.3 4-1.8-.3-1.3-1.8-1.8-7.3-2.4-27.5-2.7-28.2-2.8-29.4-5.6-2.5-5.3-2.4-10.4.4-18.6 5.8-17.3 10-24.9 21.9-40.1l5.9-7.5-1.2-6.8c-2.1-11.5-3.9-56.2-3-72.7.8-15 1.3-19.3 2.9-23 .4-1.1 1.1-2.8 1.4-3.8.3-.9 1.1-1.7 1.7-1.7.7 0 5 3.7 9.6 8.2zm353.9 80.3c.3.8 2.6 2.6 5.1 4.1l4.5 2.6-5.9 2.8c-3.2 1.5-8.7 4-12.2 5.4-6.9 2.9-12.3 7-15.8 12.2-1.2 1.7-3.4 3.5-5 3.9-2.2.5-3.1.2-4.6-1.9-2.8-3.9-7.9-3.6-11.8.6-1.6 1.8-3.2 4.4-3.6 5.8-1.5 6.3-4.5 10.9-7.6 11.9-7.9 2.3-7.7 2.4-14.3-4.2-3.4-3.4-8.3-8.2-10.8-10.6-2.5-2.4-4.6-4.8-4.6-5.3 0-.7 7.5-4.5 22.3-11.2 7.4-3.4 32-11.4 37.2-12.2 2.2-.4 4.5-1 5-1.4.6-.5 3.5-1.1 6.5-1.5 3-.4 7.3-1.1 9.5-1.5 2.2-.4 4.4-.8 4.8-.9.4-.1 1 .6 1.3 1.4zM385.5 286c1.4.5 2.3 1.4 2 2-.9 1.4-1.6 1.2-4.5-1-2.7-2.1-1.6-2.6 2.5-1zm-1.6 6.7c15.5 8.3 30.6 19.8 44.8 34.3 11.8 11.8 15.3 17.3 15.3 23.8 0 2.4-6.5 22.6-8 24.7-.3.5-1.4 3.1-2.4 5.7-3 8.2-8.8 12.6-19.1 14.4-1.1.2-4.2.8-7 1.3-9.5 1.8-17.1 1.3-22.3-1.4-6.5-3.4-21.1-17.7-33.2-32.5-2.5-3-5.2-6.3-6-7.2-.8-.9-3.5-4.1-6-7.2-2.5-3-5.1-5.5-5.8-5.6-.7 0-2.1-.5-3.1-1.1-1-.7-2.9-.9-4.2-.6-2.5.6-16 10.8-22.3 16.8-1.8 1.7-5.1 4.2-7.4 5.5l-4 2.4 3.3-8.1c5.2-12.4 18.8-35.1 27.3-45.6 4.1-5.2 15.3-14.3 20.8-17.2 2.3-1.2 8.3-3.2 13.5-4.5 11.8-3 17.1-2.6 25.8 2.1zm-93.6 107.9c.4 1.6 1.3 3.9 2 5.2.8 1.8.7 3.3-.7 7.2-1 2.7-1.5 5.8-1.1 7 .7 2.3 4.2 4 8.1 4 1.3 0 2.4.6 2.4 1.2.1 2.8 3.9 5.9 6.7 5.6 2.5-.3 2.8-.8 3.1-4.3.3-3.7-2.2-13.8-4-16-.4-.5-.8-3.5-.8-6.7 0-4.5.4-6 1.7-6.5 1.5-.6 2.2-.1 8.4 7.3.9 1 3.8 3.7 6.5 5.9 11.1 9.1 12.3 11.4 12.4 22.5 0 2.5.8 7 1.8 10 3.8 11.8 7 14.7 12.9 11.6 4.8-2.4 5.6-4.1 5-9.9-.9-7.3 0-8.4 5.1-5.8 2.8 1.4 5.4 4.1 8.6 9 3.5 5.2 5.7 7.4 9 8.9 3 1.5 5.7 4 8.9 8.4 6.1 8.5 8.3 10.8 10.2 10.8.9 0 4-2.2 6.8-5 4.6-4.5 10.7-7.3 12.3-5.7.4.4-2.4 12.2-4 16.7-.2.8-1 4.1-1.6 7.2-1 4.9-1.6 5.9-4.7 7.8-4.7 2.8-11.1 5-14.6 5-4 0-13.3-4-21.3-9.2-3.8-2.5-7.9-4.8-9.1-5.2-1.3-.4-2.3-1.1-2.3-1.6 0-.8-8-7-12.5-9.7-2.4-1.5-7.2-1.7-8-.3-1.7 2.8-5.4.5-16.5-10.8-6.4-6.4-13.6-13.2-15.8-15-2.3-1.9-4.2-4-4.2-4.8 0-.8-.4-1.4-1-1.4h-1.5c-.4 0-14.2-9.1-26.7-17.6-2.1-1.4-3.8-3-3.8-3.5 0-1.4 4.7-8.6 6.3-9.6.7-.4 2.5-2.4 3.8-4.5 3.9-5.8 9.3-11.8 10.3-11.5.6.2 1.4 1.6 1.9 3.3zm-16.7 32c4.9 3.1 10.1 6.4 11.6 7.3 2.4 1.4 4.4 4 3.6 4.6-.2.1-2.2.5-4.5.9-4 .6-4.5.4-11.5-5.5-4-3.4-8.1-6.7-9-7.3-1-.6-1.8-1.4-1.8-1.9 0-.6 2.1-3.5 2.6-3.7.1 0 4.2 2.5 9 5.6zm-7.8 7.4c2.3 2.3 4.2 4.5 4.2 5 0 .6.7 1 1.6 1 3 0 .8 2.5-2.5 2.8-2.8.3-4-.4-8.2-4.6-4.6-4.6-4.8-5.1-3.4-6.6 2.4-2.4 3.7-2 8.3 2.4zm-8.4 7.5l4 3.5h-4.7c-5.1 0-6.2-.9-5.3-4.6.8-3.2 1.4-3.1 6 1.1zm48.6 10.2c0 .2-1.1-.4-2.5-1.3s-2.5-2-2.5-2.5 1.1.1 2.5 1.3 2.5 2.3 2.5 2.5z"/><path d="M142 306.7c0 .9.9 2.6 2 3.8 1.5 1.6 2 3.9 2.4 9.5.5 9.6 1.3 12.7 4.4 16.7 5.4 7.2 14 9.3 21.4 5.4l3.6-2 1.2 3c1.6 3.8 3.4 3.2 3.8-1.2.5-5.1-1.2-9.8-7-18.4-6.1-9.2-11.8-13.7-21-16.5-8.1-2.5-10.8-2.6-10.8-.3zm13.7 9.1c1 .6.9 1.7 0 5-1.5 5.1-2.7 4.5-2.7-1.5 0-4.3.5-4.9 2.7-3.5zm17.3 17.4c0 1.9-5.7 5.8-8.6 5.8-4.2 0-4.8-.9-1.9-3.1 1.3-1.1 3.3-3.5 4.6-5.5l2.2-3.6 1.8 2.9c1 1.5 1.9 3.1 1.9 3.5zM244.2 355.1c-4 .5-8.2 1.9-11.7 3.9-6.1 3.5-6.9 4.4-6.1 6.6.4 1.2 1 1.3 2.6.4 1.8-1 2.2-.7 3.1 1.8 1.8 5.3 5.7 11.7 8.1 13.5 5.7 4.2 19.4 2.7 26.2-3 4.3-3.6 9.6-10.9 9.6-13.2 0-3.4-8.9-8.4-18.1-10.1-2.8-.6-5.7-.9-6.3-.9-.6.1-3.9.5-7.4 1zm-1.2 13c0 4.4-1.4 4.5-3.1.2-1-2.8-.5-4.3 1.7-4.3 1 0 1.4 1.2 1.4 4.1zm22.3-2.3c1.5.7 1.3 1.2-2 4.3-2.1 1.9-5.1 4.1-6.8 4.7l-3 1.2 3.6-3.2c2-1.8 3.9-4.3 4.3-5.6.8-2.3 1.1-2.5 3.9-1.4zM174.6 370.1c-4.3.7-5.9 2.5-4.5 5.1.6 1.2.6 2.5 0 3.7-.8 1.4-.5 2.3 1.3 4 1.2 1.1 2.7 2.1 3.2 2.1s1.8 1.3 2.7 3c1 1.6 1.6 3 1.3 3-.3 0-.1 1.1.4 2.5.8 2.1.4 3.4-2.5 8-1.9 3-5.5 6.8-8 8.5-4 2.7-4.9 3-8 2.1-4.2-1.1-6.1-2.9-8.1-7.7-1-2.4-1.9-3.3-2.5-2.7-2.9 2.9.7 11.8 5.7 13.9 5.1 2.2 8.7 1.7 17.6-2 1.3-.6 1.9.1 2.8 3.3 2.2 8.2 10.1 14 16.7 12.2 4.2-1.1 3.5-3.3-1.2-3.7-7.4-.7-11.7-6.6-11.7-16.1 0-4.8 3.7-12.3 6.1-12.3.9 0 3-.9 4.6-2 3.2-2.1 7-2.6 7.9-1.1.9 1.4 3.7.3 7.5-2.8 2.8-2.3 3.3-3.2 2.7-5.5-2.1-8.5-21.9-17.5-34-15.5zm20.8 9.5c3.8 2.2 7.1 4.5 7.3 5.2.9 2.2-1.6 3.9-6.1 3.9-2.4.1-5.7.8-7.4 1.7-4.4 2.3-5 2.1-6.1-2.1-.7-2.3-2.5-5-4.8-6.9-2.7-2.2-3.5-3.5-3-4.9.6-1.5 1.6-1.7 7-1.2 4.7.4 7.8 1.4 13.1 4.3zM560 170.4c-7 2-13.3 5.1-15.8 7.9-4.2 4.4-8.2 14.4-8.2 20 0 6.4 1.2 8.4 12 20.2 8 8.7 16.5 19.5 22.4 28.2 1.6 2.4 3.3 4.3 3.7 4.3.5 0 .9-1.9.9-4.3 0-3.1-.9-5.7-3.1-9.3-3.2-4.9-15.1-19.6-19.9-24.4-1.4-1.4-4.2-4.5-6.3-6.9-4.7-5.6-4.9-10.1-.9-18.1 2.5-5 3.3-5.8 10.2-9.2 6.2-3 8.6-3.7 13.8-3.7 5.9-.1 6.2-.2 6.2-2.5 0-1.3-.7-2.7-1.6-3-2.5-.9-8.5-.6-13.4.8zM489.4 393.7c-1.3.6-4 2.8-6.1 4.9-4.2 4-9.1 6.5-17 8.3-2.9.7-5.3 1.7-5.3 2.2 0 .5-1 .9-2.3.9-3.2 0-7 4.3-10.2 11.5-3.9 9-4.8 10.5-5.7 10.5-.5 0-.6.5-.3 1 .4.6-.5 2.6-2 4.5-3.4 4.5-2.7 8.8 2.3 14.2 6.2 6.5 6.4 6.6 11.1 4.1 2.2-1.2 5.8-3.9 8-5.9 2.2-2.1 5.2-4.1 6.8-4.4 1.5-.4 3.9-1.1 5.3-1.6 1.7-.8 2.6-.7 2.8 0 .2.6.8.9 1.2.6.5-.3 2.3.3 4.1 1.4 2.2 1.3 4.2 1.8 6.5 1.4 2.2-.4 3.4-.2 3.4.6s.5.9 1.9.1c1.1-.5 3.6-1 5.6-1 2 0 6.2-1.3 9.5-3 3.6-1.8 7.5-3 9.9-3 2.2 0 6.3-.9 9-2 2.8-1.1 7.6-2 10.8-2.1 7.7-.2 8.9-1 9.1-5.7.3-6.7-3-10.2-12.3-13.4-9.5-3.3-20.1-8.5-23-11.3-1.1-1.1-3.3-3.7-4.8-5.8-5.7-7.6-12.4-10.1-18.3-7zm15.2 9.8c7 7.4 13.2 11.6 20.9 14 2.2.6 6.8 2.5 10.2 4 5.8 2.6 6.1 3 6.5 6.6l.3 3.9-5.5 1.1c-3 .6-8.4 1.9-12 3-3.6 1-7.7 1.9-9.2 1.9-1.4 0-5 1.1-8 2.5-4.4 2.1-6.8 2.5-14.5 2.5-5.2 0-9.5-.4-9.8-1-.4-.6-2.1-1.6-3.8-2.3-4.5-1.9-14.6 1.4-20 6.5-4.2 4-10.2 7.2-11.6 6.3-.5-.3-2.3-2.2-4-4.3l-3-3.9 3.3-4.9c1.8-2.7 3.6-6 4-7.4.4-1.4 1.1-3.4 1.6-4.5s1.8-4.1 2.9-6.7c2.1-5 6.1-7.8 13.1-9.3 8.4-1.8 12.7-3.9 17.6-8.6 4.6-4.5 8.3-6.6 12.4-6.8.8-.1 4.7 3.3 8.6 7.4zM492.2 509.2c-2.2 2.2-1.3 4.6 4.1 11 11.1 13.2 15.8 20 18.6 27.1 1 2.6 1.6 2.8 5.1 2.6 4.8-.4 8 1.9 8 5.5 0 4.4 2 8 7.3 12.9 7 6.7 8.7 7.7 12.2 7.7 2.9-.1 2.9-.1 1-1.6-6.5-4.9-14.5-12.2-15.4-14.2-.6-1.3-1.1-3.7-1.1-5.5-.1-5.4-5.3-10-10.1-9-2.4.5-3 .1-3.9-2.1-.5-1.5-3.2-6-5.9-10.1s-4.6-7.5-4.3-7.5c.4 0 5 4.3 10.2 9.6 5.6 5.6 10.6 9.7 12.2 10.1 2.5.5 12.8 9.6 12.8 11.3 0 1.9 7.1 2.2 11.8.6 2.6-1 6.3-2.1 8.2-2.6 1.9-.5 5.4-1.8 7.8-3 3.3-1.6 4.2-2.6 4.2-4.6 0-1.4-.3-2.3-.7-2.1-3.9 2-11.2 5-13.1 5.3-1.3.3-3.4 1.2-4.7 2-1.3.8-4 1.5-6.1 1.6-3.5.1-4.6-.6-10.2-6-3.4-3.4-7.5-6.5-9-6.9-1.5-.3-7.8-5.7-14.8-12.5-6.6-6.5-13.6-13-15.4-14.3-1.9-1.4-3.6-2.8-3.9-3.2-1.8-2.4-3.8-3.2-4.9-2.1zM406.2 523.2c-.7.7-1.2 2-1.2 2.9 0 3.4 4 21.4 6.6 29.8 5.2 17 6.6 20.1 8.5 20.1 2.1 0 2.5-2.9.9-5.8-.5-.9-2.7-7.3-4.8-14.2-4.1-12.9-6-23-4.5-23 .5 0 2.3 3 4 6.7 2.8 5.9 4.8 11.3 12 32 1.2 3.5 1.9 4.3 3.9 4.3 1.4 0 2.4-.3 2.2-.8-2-3.9-3.9-8.7-5.8-13.7-1.2-3.3-2.5-6.9-3-8-.4-1.1-1.8-4.7-3.1-8-2.7-7.1-10.5-21.6-12.2-22.7-1.6-1-2.1-1-3.5.4z"/></svg>